<svg width="1899" height="1888" viewBox="0 0 1899 1888" fill="none" xmlns="http://www.w3.org/2000/svg">
<path fill-rule="evenodd" clip-rule="evenodd" d="M917 155.279C790.67 160.34 665.041 196.715 555 260.093C389.816 355.23 263.654 509.251 204.681 687.772C178.258 767.756 165.906 844.669 165.909 929.181C165.913 1049.46 191.976 1161.41 244.972 1268.77C272.379 1324.3 303.707 1372.7 342.375 1419.27C457.394 1557.8 615.308 1652.31 792 1688.38C807.419 1691.52 843.178 1697.43 843.694 1696.91C843.863 1696.74 842.451 1686.74 840.555 1674.69C833.276 1628.41 822.932 1552.47 819.521 1520.27C818.618 1511.75 817.568 1502.85 817.189 1500.49L816.5 1496.21L812.002 1501.99C785.268 1536.35 739.688 1564.57 695.269 1574.27C657.894 1582.42 615.66 1580.53 581 1569.14C504.148 1543.89 449.455 1480.79 437.395 1403.45C435.247 1389.67 435.219 1362.58 437.338 1348.27C443.757 1304.93 462.844 1267.26 494.167 1236.11C525.072 1205.37 563.398 1185.81 608.5 1177.75C620.901 1175.54 653.708 1174.68 667 1176.22C709.576 1181.15 747.643 1196.92 780.084 1223.08C795.244 1235.3 814.833 1257.18 824.054 1272.19C825.886 1275.18 827.5 1277.2 827.641 1276.69C827.782 1276.19 828.838 1268.8 829.988 1260.27C845.17 1147.69 877.992 1034.19 925.71 929.272C1027.01 706.519 1201.88 511.565 1442.3 353.323C1457.19 343.525 1460.83 340.703 1459.8 339.772C1455.08 335.505 1430.34 316.105 1419.5 308.158C1273.6 201.25 1098.59 148.004 917 155.279ZM1195.83 297.402L1190.87 296.337C1186.3 295.357 1164.85 295.065 1159 295.902C1109.16 303.039 1060.77 324.16 1024.35 354.674C990.172 383.303 969.245 425.37 959.837 484.349C957.876 496.647 957.536 502.529 957.531 524.272C957.524 550.95 958.747 562.325 962.938 574.587L964.711 579.772L977.105 579.669C1005.01 579.437 1042.88 568.655 1078.95 550.673C1105.82 537.277 1124.4 524.563 1140.39 508.633C1169.46 479.676 1187.24 442.029 1193 397.272C1194.02 389.325 1194.36 378.598 1195.42 320.337L1195.83 297.402ZM918.426 471.38C940.611 406.611 926.474 357.37 874 316.635C870.425 313.86 864.05 309.279 859.834 306.456L852.167 301.324L846.481 307.465C821.24 334.73 807.078 368.039 807.026 400.272C806.95 446.638 836.694 495.314 884.358 526.825C891.292 531.41 890.21 532.192 898.665 516.477C906.439 502.028 913.261 486.458 918.426 471.38ZM774.468 429.79C763.314 418.651 753.615 411.096 739.835 402.813C735.679 400.315 731.847 398.272 731.317 398.272C729.693 398.272 719.417 410.532 712.539 420.677C687.378 457.788 678.558 502.343 688.171 543.772C696.381 579.153 715.832 609.452 747 635.405C753.827 641.09 770.118 652.272 771.574 652.272C772.041 652.272 774.292 650.439 776.575 648.198L780.726 644.125L783.725 649.448C785.375 652.376 790.405 663.36 794.904 673.856C803.111 693.004 806.662 699.874 828.456 738.772C849.012 775.458 867.827 810.71 886.501 847.52L904.636 883.268L906.436 877.52C910.378 864.935 918.428 850.675 928.745 838.004C933.553 832.099 934.184 830.824 933.693 828.004C928.83 800.105 928.934 801.142 929.915 790.309C933.265 753.317 944.574 666.552 949.581 639.437C951.742 627.728 952.01 623.766 951.771 606.937L951.5 587.772L946.773 600.772C937.728 625.646 933.507 640.24 919.872 693.772C914.408 715.222 907.932 739.777 905.481 748.339C901.038 763.853 894.439 783.024 892.996 784.603C891.611 786.121 881.578 773.43 844.511 723.272C820.88 691.295 804.198 669.67 790.613 653.403C783.191 644.515 782.133 642.8 783.211 641.403C783.903 640.506 786.308 637.522 788.556 634.772C801.071 619.464 811.694 596.51 817.018 573.272C819.837 560.964 820.912 537.714 819.351 522.772C815.621 487.06 800.549 455.837 774.468 429.79ZM609.131 530.772C602.299 498.224 580.979 469.114 555.668 457.77C552.826 456.496 549.077 455.161 547.338 454.803C544.259 454.169 544.043 454.368 539.027 462.462C520.521 492.328 515.301 517.715 522.123 544.68C528.34 569.257 547.564 594.101 571.5 608.492C577.527 612.116 585.853 615.847 586.349 615.147C586.495 614.941 587.98 612.972 589.65 610.772C598.151 599.57 605.384 583.896 608.57 569.772C610.728 560.209 611.022 539.776 609.131 530.772ZM551.259 638.168C516.294 604.607 477.615 587.612 428.576 584.263C415.406 583.364 397.971 583.316 339.85 584.021L316.199 584.308L315.53 591.04C313.947 606.966 318.368 635.289 326.103 658.772C352.49 738.88 420.015 801.304 499 818.607C517.145 822.582 528.1 823.709 548.5 823.701C573.382 823.691 592.015 821.308 615.893 815.082L624.287 812.893L623.661 801.243C622.456 778.849 616.395 750.881 607.484 726.599C605.5 721.194 600.316 709.572 595.963 700.772C583.27 675.111 569.158 655.348 551.259 638.168ZM785.298 761.107C757.827 738.66 721.842 722.037 680.88 712.872C674.488 711.442 668.547 710.272 667.677 710.272C665.737 710.272 665.017 712.733 660.513 734.772C645.015 810.603 649.223 859.762 674.658 900.023C701.164 941.978 760.492 981.004 824.028 998.28C830.081 999.925 835.681 1001.27 836.473 1001.27C839.035 1001.27 846.24 975.11 849.967 952.272C859.554 893.518 849.781 842.122 820.973 799.801C813.004 788.094 796.751 770.466 785.298 761.107ZM626.434 911.139C620.968 905.316 614.568 903.366 590.528 900.198C578.412 898.602 568.5 897.351 568.5 897.42C568.5 897.488 565.283 897.882 561.352 898.297C519.536 902.702 492.202 920.819 474.168 956.083C468.192 967.768 463.102 979.941 457.888 995.011C455.75 1001.19 454 1006.45 454 1006.69C454 1006.93 456.498 1007.65 459.551 1008.28C484.107 1013.38 517.291 1014.73 536.633 1011.43C574.137 1005.02 599.705 986.553 616.128 954.018C620.211 945.93 625.301 931.679 627.557 922.018L629.367 914.265L626.434 911.139Z" fill="url(#paint0_linear_15_34)"/>
<path fill-rule="evenodd" clip-rule="evenodd" d="M1472.54 377.825C1235.52 551.213 1065.48 765.803 975.034 1005.65C934.628 1112.81 912.611 1214.09 903.814 1333.27C902.119 1356.23 902.113 1441.83 903.805 1464.77C913.164 1591.7 938.273 1697.54 985.178 1807.77C993.616 1827.6 1022.7 1887.92 1023.45 1887.14C1023.64 1886.94 1022.02 1878.22 1019.84 1867.77C1009.94 1820.15 1002.11 1775.43 996.029 1731.77C994.342 1719.67 992.736 1708.37 992.46 1706.65L991.958 1703.53L1002.23 1702.86C1175.02 1691.49 1338.03 1624.63 1469 1511.39C1487.8 1495.14 1530.16 1452.79 1546.14 1434.27C1638.72 1326.99 1699.01 1201.45 1723.59 1064.77C1737.2 989.1 1739.16 910.229 1729.38 832.772C1710.37 682.355 1648.34 543.538 1547.96 426.772C1531.99 408.202 1491.52 366.272 1489.55 366.272C1488.88 366.272 1481.22 371.471 1472.54 377.825ZM1493 537.77C1497.68 538.708 1501.6 539.569 1501.73 539.684C1502.35 540.256 1494.47 567.733 1490.86 577.557C1471.84 629.428 1441.73 660.053 1400.64 669.326C1382.74 673.365 1359.19 672.784 1337.21 667.76C1331.3 666.409 1330.01 665.78 1330.41 664.433C1330.68 663.519 1331.61 658.947 1332.47 654.272C1339.43 616.569 1354.67 585.883 1376.65 565.314C1392.87 550.126 1410.85 541.277 1434.5 536.835C1445.45 534.779 1480.91 535.346 1493 537.77ZM1397.18 751.272C1400.07 804.205 1400.14 806.898 1399.02 817.121C1396.23 842.463 1387.21 861.637 1369.79 879.245C1347.9 901.366 1315.08 918.141 1286.85 921.631C1286.41 921.685 1286.02 921.744 1285.66 921.797C1284.49 921.971 1283.69 922.09 1283.07 921.81C1281.74 921.208 1281.24 918.767 1279.67 911.077C1279.44 909.976 1279.19 908.768 1278.92 907.442C1271.99 874.013 1272.24 843.38 1279.64 821.286C1289.13 792.915 1312.88 767.485 1345.05 751.249C1360.33 743.536 1380.03 738.309 1392.5 738.66L1396.5 738.772L1397.18 751.272ZM1537.14 740.857C1557.17 744.653 1579.52 754.155 1601.82 768.346C1609.07 772.961 1615 777.083 1615 777.507C1615 779.475 1590.65 802.532 1583.57 807.271C1573.03 814.32 1559.25 820.658 1547.27 823.963C1538.6 826.354 1535.75 826.658 1522 826.656C1503.69 826.654 1495.21 824.866 1480.53 817.915C1467.04 811.522 1457.07 804.359 1445.91 793.033L1436 782.977L1439.66 778.375C1456.08 757.751 1478.32 743.827 1501 739.97C1507.58 738.851 1529.38 739.386 1537.14 740.857ZM1260.84 762.831C1261.59 763.458 1258.92 798.452 1257.49 806.801C1254.19 825.999 1246.75 842.89 1236.82 853.731C1229.9 861.28 1215.29 871.393 1202.94 877.176C1185.95 885.135 1170.24 888.967 1152.99 889.354L1143.5 889.567L1142.98 882.17C1142.23 871.565 1143.62 852.955 1145.91 843.175C1157.99 791.427 1200.33 759.051 1252 762.055C1256.68 762.327 1260.65 762.676 1260.84 762.831ZM1550 862.786C1577.58 866.929 1605.86 876.125 1632.94 889.748C1650.53 898.598 1673 912.782 1673 915.033C1673 917.212 1660.33 941.211 1652.87 953.159C1634.61 982.421 1611.4 1009.19 1586 1030.29C1563.77 1048.76 1531.49 1067.2 1507.5 1075.14C1485.5 1082.43 1476.09 1083.78 1447.5 1083.74C1425.96 1083.72 1420.73 1083.4 1409.74 1081.44C1382.17 1076.51 1358.42 1069.68 1327.5 1057.77C1311.67 1051.67 1277.56 1037.35 1274.81 1035.65C1274.38 1035.39 1276.7 1029.85 1279.97 1023.34C1326.68 930.141 1405.74 870.438 1494.5 861.32C1506.77 860.06 1537.2 860.863 1550 862.786ZM1091.97 1065.32C1081 1093.62 1072.01 1117.11 1072.01 1117.52C1071.98 1119.78 1087.4 1115.89 1103.5 1109.57C1117.43 1104.11 1146.63 1089.4 1165.93 1078.12C1173.32 1073.8 1180.3 1070.27 1181.44 1070.27C1185.21 1070.27 1200.52 1065.61 1207.05 1062.48C1210.58 1060.79 1213.62 1059.55 1213.8 1059.74C1214.41 1060.35 1210.26 1067.72 1207.85 1070.29C1203.9 1074.52 1199.07 1077.74 1185 1085.53C1160.02 1099.35 1142.76 1111.37 1083 1156.59C1047.28 1183.61 1016.92 1205.79 1007.05 1212.05C986.337 1225.2 975.357 1232.56 961.715 1242.45C955.783 1246.75 950.753 1250.27 950.537 1250.27C949.329 1250.27 948.933 1238.15 949.922 1231.4C951.984 1217.29 958.651 1193.27 962.703 1185.35L966.5 1177.92L976.5 1173.78C996.162 1165.63 1006.04 1159.86 1022.21 1147.06C1047.3 1127.19 1067.07 1099.49 1091.99 1049.27C1100.51 1032.12 1111.05 1012.99 1111.66 1013.6C1111.8 1013.74 1102.94 1037.02 1091.97 1065.32ZM1304 1088.78C1333.6 1091.65 1355.14 1097.42 1376.5 1108.22C1402.93 1121.56 1422.3 1139.12 1442.2 1167.77C1467.3 1203.89 1482.31 1245.79 1483.7 1283.62L1484.29 1299.47L1431.4 1298.98C1383.06 1298.54 1377.52 1298.32 1367.17 1296.39C1349.78 1293.15 1341.56 1290.69 1327.5 1284.52C1290.37 1268.24 1261.65 1236.65 1235.89 1183.77C1220.02 1151.22 1211 1119.14 1211 1095.28V1087.27L1249.75 1087.28C1276.66 1087.28 1293.23 1087.74 1304 1088.78Z" fill="url(#paint1_radial_15_34)"/>
<path fill-rule="evenodd" clip-rule="evenodd" d="M1472.54 377.825C1235.52 551.213 1065.48 765.803 975.034 1005.65C934.628 1112.81 912.611 1214.09 903.814 1333.27C902.119 1356.23 902.113 1441.83 903.805 1464.77C913.164 1591.7 938.273 1697.54 985.178 1807.77C993.616 1827.6 1022.7 1887.92 1023.45 1887.14C1023.64 1886.94 1022.02 1878.22 1019.84 1867.77C1009.94 1820.15 1002.11 1775.43 996.029 1731.77C994.342 1719.67 992.736 1708.37 992.46 1706.65L991.958 1703.53L1002.23 1702.86C1175.02 1691.49 1338.03 1624.63 1469 1511.39C1487.8 1495.14 1530.16 1452.79 1546.14 1434.27C1638.72 1326.99 1699.01 1201.45 1723.59 1064.77C1737.2 989.1 1739.16 910.229 1729.38 832.772C1710.37 682.355 1648.34 543.538 1547.96 426.772C1531.99 408.202 1491.52 366.272 1489.55 366.272C1488.88 366.272 1481.22 371.471 1472.54 377.825ZM1493 537.77C1497.68 538.708 1501.6 539.569 1501.73 539.684C1502.35 540.256 1494.47 567.733 1490.86 577.557C1471.84 629.428 1441.73 660.053 1400.64 669.326C1382.74 673.365 1359.19 672.784 1337.21 667.76C1331.3 666.409 1330.01 665.78 1330.41 664.433C1330.68 663.519 1331.61 658.947 1332.47 654.272C1339.43 616.569 1354.67 585.883 1376.65 565.314C1392.87 550.126 1410.85 541.277 1434.5 536.835C1445.45 534.779 1480.91 535.346 1493 537.77ZM1397.18 751.272C1400.07 804.205 1400.14 806.898 1399.02 817.121C1396.23 842.463 1387.21 861.637 1369.79 879.245C1347.9 901.366 1315.08 918.141 1286.85 921.631C1286.41 921.685 1286.02 921.744 1285.66 921.797C1284.49 921.971 1283.69 922.09 1283.07 921.81C1281.74 921.208 1281.24 918.767 1279.67 911.077C1279.44 909.976 1279.19 908.768 1278.92 907.442C1271.99 874.013 1272.24 843.38 1279.64 821.286C1289.13 792.915 1312.88 767.485 1345.05 751.249C1360.33 743.536 1380.03 738.309 1392.5 738.66L1396.5 738.772L1397.18 751.272ZM1537.14 740.857C1557.17 744.653 1579.52 754.155 1601.82 768.346C1609.07 772.961 1615 777.083 1615 777.507C1615 779.475 1590.65 802.532 1583.57 807.271C1573.03 814.32 1559.25 820.658 1547.27 823.963C1538.6 826.354 1535.75 826.658 1522 826.656C1503.69 826.654 1495.21 824.866 1480.53 817.915C1467.04 811.522 1457.07 804.359 1445.91 793.033L1436 782.977L1439.66 778.375C1456.08 757.751 1478.32 743.827 1501 739.97C1507.58 738.851 1529.38 739.386 1537.14 740.857ZM1260.84 762.831C1261.59 763.458 1258.92 798.452 1257.49 806.801C1254.19 825.999 1246.75 842.89 1236.82 853.731C1229.9 861.28 1215.29 871.393 1202.94 877.176C1185.95 885.135 1170.24 888.967 1152.99 889.354L1143.5 889.567L1142.98 882.17C1142.23 871.565 1143.62 852.955 1145.91 843.175C1157.99 791.427 1200.33 759.051 1252 762.055C1256.68 762.327 1260.65 762.676 1260.84 762.831ZM1550 862.786C1577.58 866.929 1605.86 876.125 1632.94 889.748C1650.53 898.598 1673 912.782 1673 915.033C1673 917.212 1660.33 941.211 1652.87 953.159C1634.61 982.421 1611.4 1009.19 1586 1030.29C1563.77 1048.76 1531.49 1067.2 1507.5 1075.14C1485.5 1082.43 1476.09 1083.78 1447.5 1083.74C1425.96 1083.72 1420.73 1083.4 1409.74 1081.44C1382.17 1076.51 1358.42 1069.68 1327.5 1057.77C1311.67 1051.67 1277.56 1037.35 1274.81 1035.65C1274.38 1035.39 1276.7 1029.85 1279.97 1023.34C1326.68 930.141 1405.74 870.438 1494.5 861.32C1506.77 860.06 1537.2 860.863 1550 862.786ZM1091.97 1065.32C1081 1093.62 1072.01 1117.11 1072.01 1117.52C1071.98 1119.78 1087.4 1115.89 1103.5 1109.57C1117.43 1104.11 1146.63 1089.4 1165.93 1078.12C1173.32 1073.8 1180.3 1070.27 1181.44 1070.27C1185.21 1070.27 1200.52 1065.61 1207.05 1062.48C1210.58 1060.79 1213.62 1059.55 1213.8 1059.74C1214.41 1060.35 1210.26 1067.72 1207.85 1070.29C1203.9 1074.52 1199.07 1077.74 1185 1085.53C1160.02 1099.35 1142.76 1111.37 1083 1156.59C1047.28 1183.61 1016.92 1205.79 1007.05 1212.05C986.337 1225.2 975.357 1232.56 961.715 1242.45C955.783 1246.75 950.753 1250.27 950.537 1250.27C949.329 1250.27 948.933 1238.15 949.922 1231.4C951.984 1217.29 958.651 1193.27 962.703 1185.35L966.5 1177.92L976.5 1173.78C996.162 1165.63 1006.04 1159.86 1022.21 1147.06C1047.3 1127.19 1067.07 1099.49 1091.99 1049.27C1100.51 1032.12 1111.05 1012.99 1111.66 1013.6C1111.8 1013.74 1102.94 1037.02 1091.97 1065.32ZM1304 1088.78C1333.6 1091.65 1355.14 1097.42 1376.5 1108.22C1402.93 1121.56 1422.3 1139.12 1442.2 1167.77C1467.3 1203.89 1482.31 1245.79 1483.7 1283.62L1484.29 1299.47L1431.4 1298.98C1383.06 1298.54 1377.52 1298.32 1367.17 1296.39C1349.78 1293.15 1341.56 1290.69 1327.5 1284.52C1290.37 1268.24 1261.65 1236.65 1235.89 1183.77C1220.02 1151.22 1211 1119.14 1211 1095.28V1087.27L1249.75 1087.28C1276.66 1087.28 1293.23 1087.74 1304 1088.78Z" fill="black"/>
<path d="M522.127 1240.34C514.992 1241.6 501.993 1247.84 494.219 1253.73C472.881 1269.9 455.047 1302.25 447.432 1338.61C444.302 1353.55 443.074 1380.81 444.911 1394.56C452.876 1454.18 489.997 1484.45 530.257 1464.15C586.198 1435.93 611.99 1328.37 577.004 1269.19C564.237 1247.6 543.32 1236.6 522.127 1240.34Z" fill="url(#paint2_radial_15_34)"/>
<path fill-rule="evenodd" clip-rule="evenodd" d="M943 6.315C943 6.671 943.883 7.761 944.962 8.738C948.993 12.386 949.319 15.984 948.582 48.713C948.197 65.795 947.464 81.376 946.952 83.337C946.441 85.298 944.854 87.998 943.425 89.337L940.828 91.772L956.664 92.281C965.374 92.561 972.615 92.746 972.755 92.693C972.895 92.639 971.883 91.285 970.505 89.684C969.128 88.082 967.709 85.225 967.354 83.334C966.271 77.579 967.676 18.131 968.974 14.772C969.611 13.122 971.08 10.761 972.237 9.526C973.394 8.291 974.152 7.105 973.921 6.891C973.179 6.205 943 5.642 943 6.315ZM893.75 7.011C887.602 7.397 887.254 7.702 889.532 10.713C892.004 13.981 891.176 18.813 883.612 45.272C876.373 70.596 875.039 73.515 872.284 70.065C871.716 69.354 865.375 58.197 858.194 45.272C845.645 22.687 842.525 15.302 844.91 13.828C849.408 11.048 838.926 10.698 817.774 12.923L812.049 13.525L816.274 16.584C818.599 18.267 821.4 20.733 822.5 22.064C823.6 23.396 833.533 40.525 844.574 60.129L864.648 95.772L869.538 95.508C872.227 95.363 874.742 94.913 875.127 94.508C875.512 94.103 880.6 76.968 886.435 56.431C892.269 35.893 897.709 17.801 898.523 16.227C899.337 14.653 901.646 11.769 903.655 9.819L907.307 6.272L903.403 6.461C901.257 6.565 896.913 6.813 893.75 7.011ZM1017.25 9.683C1019.31 11.708 1021.76 14.807 1022.69 16.569C1023.63 18.33 1029.86 37.322 1036.54 58.772L1048.69 97.772L1053.87 98.666C1056.71 99.158 1059.19 99.383 1059.37 99.166C1059.55 98.949 1067.24 84.372 1076.46 66.772C1096.14 29.205 1098.71 25.113 1104.91 21.481L1109.5 18.789L1101.5 17.606C1100.68 17.4844 1099.92 17.3697 1099.21 17.2631C1093.64 16.4255 1091.46 16.0973 1090.71 16.9822C1090.23 17.5524 1090.34 18.6265 1090.52 20.3927C1090.56 20.7417 1090.6 21.1176 1090.63 21.522C1091.11 26.668 1090.87 27.247 1078.46 50.772C1071.5 63.972 1065.39 75.203 1064.89 75.729C1062.95 77.774 1060.92 72.999 1053.47 48.912C1044.62 20.308 1044.04 17.386 1046.45 13.706C1047.39 12.272 1048.01 10.974 1047.83 10.821C1047.65 10.669 1041.43 9.779 1034 8.844C1026.57 7.909 1018.92 6.887 1017 6.572L1013.5 6L1017.25 9.683ZM1152.62 31.529C1153.08 34.909 1152.72 36.895 1151.04 40.188C1146.75 48.606 1117.75 95.827 1115.24 98.499C1113.82 99.999 1110.86 102.12 1108.66 103.212L1108.41 103.332C1106.77 104.142 1105.8 104.625 1105.82 105.058C1105.85 105.701 1108.09 106.232 1113.65 107.551L1114.21 107.682C1123.79 109.954 1124.11 109.898 1122.83 106.22C1121.49 102.364 1123.27 97.4 1129.27 88.272C1129.5 87.9226 1129.71 87.59 1129.92 87.2739C1131.53 84.8059 1132.48 83.3409 1133.83 82.6652C1135.81 81.6782 1138.62 82.3753 1145.55 84.0903C1146.15 84.2408 1146.79 84.3992 1147.47 84.565L1156.43 86.772L1157.29 90.772C1157.76 92.972 1158.23 98.444 1158.32 102.931C1158.48 110.295 1158.27 111.341 1156.1 113.655C1154.26 115.622 1154.03 116.335 1155.1 116.714C1158.19 117.804 1186.53 123.958 1186.92 123.623C1187.15 123.426 1186.42 122.253 1185.29 121.018C1180.56 115.849 1179.9 112.698 1174.94 71.893C1172.26 49.826 1170.06 31.696 1170.04 31.602C1170.02 31.509 1166.74 30.703 1162.75 29.811C1158.76 28.919 1154.72 27.955 1153.76 27.667C1152.23 27.208 1152.09 27.681 1152.62 31.529ZM685.71 42.2905C676.458 44.9686 673.555 45.8089 673.565 46.6133C673.57 46.981 674.183 47.3413 675.077 47.8663C675.292 47.9925 675.523 48.1283 675.766 48.276C677.5 49.331 679.778 51.899 680.827 53.983C682.807 57.916 698.653 111.359 699.637 117.422C699.978 119.526 699.569 122.368 698.585 124.723C697.699 126.844 697.092 128.682 697.237 128.809C697.382 128.935 713.273 124.563 732.55 119.093L767.601 109.148L765.482 98.96C763.055 87.294 761.807 86.321 758.186 93.272C755.172 99.059 752.817 101.535 746.074 106.011C740.237 109.885 724.65 115.792 722.982 114.761C720.951 113.505 719.064 108.114 710.911 80.272C702.503 51.559 700.972 42.9 703.803 40.069C705.356 38.516 705.331 37.253 703.75 37.344C703.063 37.384 696.425 39.181 689 41.337C687.823 41.6787 686.728 41.9957 685.71 42.2905ZM1154.28 64.522C1155.15 71.847 1155.47 78.164 1155 78.649C1153.93 79.75 1141.73 77.524 1139.37 75.798C1137.78 74.638 1138.22 73.558 1144.57 62.934C1148.38 56.556 1151.77 51.322 1152.1 51.305C1152.44 51.287 1153.42 57.234 1154.28 64.522ZM1289.89 69.097C1289.84 69.468 1289.87 70.972 1289.96 72.439C1290.25 76.901 1287.32 81.073 1265.3 107.589C1245.39 131.557 1243.71 133.296 1237.94 136.067L1231.79 139.018L1239.98 142.145C1244.49 143.865 1248.47 145.272 1248.83 145.272C1249.2 145.272 1249.5 143.324 1249.5 140.944C1249.5 136.563 1251.69 132.938 1260.67 122.423L1263.53 119.075L1274.51 123.423L1285.5 127.772L1285.21 138.155C1284.91 148.854 1283.62 153.266 1280.26 155.147C1279.3 155.683 1278.8 156.401 1279.14 156.743C1279.92 157.526 1307.79 168.272 1309.04 168.272C1309.55 168.272 1308.96 166.36 1307.73 164.022C1305.2 159.199 1305.06 154.133 1306 102.319L1306.5 74.865L1298.25 71.644C1293.71 69.872 1289.95 68.726 1289.89 69.097ZM596 72.41C591.875 74.079 588.282 75.661 588.015 75.927C587.748 76.192 588.483 77.166 589.648 78.09C590.813 79.015 592.32 80.85 592.996 82.168C593.73 83.596 595.184 98.318 596.597 118.623C599.051 153.896 598.95 157.477 595.339 163.109C594.515 164.394 594.019 165.624 594.237 165.842C594.651 166.256 610.077 160.529 610.98 159.626C611.264 159.341 610.789 158.583 609.923 157.94C606.23 155.198 604.847 151.35 604.155 141.892C603.773 136.667 603.606 131.954 603.784 131.42C603.962 130.886 608.895 128.525 614.746 126.173L625.385 121.897L631.771 128.835C639.324 137.039 641.337 140.523 640.767 144.404C640.454 146.54 640.749 147.259 641.923 147.223C642.79 147.196 650.025 144.534 658 141.308C668.465 137.075 671.943 135.271 670.5 134.824C661.681 132.099 658.125 128.835 631.492 99.022C616.875 82.659 604.598 69.295 604.208 69.324C603.819 69.352 600.125 70.741 596 72.41ZM1286.44 105.775C1285.98 114.593 1285.31 119.599 1284.56 119.886C1282.48 120.684 1269.49 114.815 1269.61 113.133C1269.73 111.479 1286.1 91.043 1286.77 91.712C1286.99 91.93 1286.84 98.258 1286.44 105.775ZM610.857 105.383C615.804 110.945 619.635 116.058 619.371 116.747C618.767 118.321 605.4 123.637 604.087 122.826C603.553 122.496 602.881 120.323 602.595 117.999C601.663 110.436 600.837 95.272 601.356 95.272C601.634 95.272 605.91 99.822 610.857 105.383ZM1377.56 109.022C1378.41 114.56 1376.78 118.088 1360.1 146.772C1345.21 172.394 1340.07 179.272 1335.83 179.272C1332.1 179.272 1334.26 181.205 1344.25 186.818C1349.89 189.985 1356.3 193.609 1358.5 194.872L1362.5 197.169V190.471C1362.5 184.089 1362.78 183.308 1368.35 173.954C1371.57 168.554 1374.36 164.296 1374.55 164.492C1375.35 165.29 1380 192.708 1380 196.616C1380 198.932 1379.32 201.802 1378.48 202.995C1376.85 205.319 1377.25 205.615 1396 216.078C1398.47 217.459 1401.93 219.434 1403.68 220.468L1406.86 222.346L1403.09 215.059C1401.01 211.051 1398.71 204.728 1397.97 201.008C1396.71 194.679 1396.36 194.089 1392.53 191.842C1388.1 189.244 1379 180.078 1379 178.209C1379 177.577 1380.25 178.397 1381.78 180.031C1391.97 190.946 1410.42 190.083 1422 178.15C1434.69 165.074 1436.55 145.688 1426.19 134.356C1423.66 131.593 1415.47 126.364 1400.24 117.795C1388 110.907 1377.76 105.272 1377.48 105.272C1377.2 105.272 1377.24 106.96 1377.56 109.022ZM510.977 110.62C509.04 111.313 497.47 117.481 485.266 124.326L463.078 136.772L466.789 138.387C468.83 139.276 471.625 141.138 473 142.525C476.31 145.865 505.889 197.287 507.171 201.929C507.721 203.92 507.882 207.086 507.53 208.965L506.889 212.381L510.194 210.68C516.129 207.625 534.479 197.133 535.342 196.3C535.805 195.853 534.642 194.979 532.757 194.357C530.872 193.735 528.167 191.999 526.745 190.499C523.896 187.494 513.685 170.253 514.357 169.582C514.957 168.982 541.345 178.709 545.249 180.968C547.037 182.003 548.944 183.845 549.487 185.061C550.03 186.277 550.852 187.272 551.314 187.272C551.776 187.272 558.432 183.739 566.105 179.421L580.057 171.57L572.483 170.93C568.318 170.578 561.773 169.238 557.939 167.952C551.336 165.737 550.823 165.701 548.234 167.269C543.807 169.95 535.951 172.277 531.572 172.205L527.5 172.137L532.061 170.907C540.29 168.688 548.064 161.41 550.083 154.035C554.935 136.314 544.755 116.681 527.715 110.896C522.058 108.976 515.859 108.874 510.977 110.62ZM515.835 122.188C524.843 126.783 532.857 139.522 533.731 150.633C534.144 155.888 533.897 157.172 532.012 159.55C530.802 161.078 528.071 163.215 525.945 164.3C516.185 169.279 511.571 165.842 499.23 144.403C491.48 130.94 488.831 125.294 490.25 125.267C490.387 125.265 493.2 124.151 496.5 122.791C503.812 119.779 510.692 119.564 515.835 122.188ZM1406.1 125.846C1415 132.378 1417.64 138.432 1415.84 148.164C1413.89 158.722 1407.49 168.055 1399.05 172.65C1392.62 176.149 1389.03 175.704 1383.16 170.679C1379.19 167.276 1379 166.862 1379 161.444C1379.01 156.093 1379.55 154.825 1388.69 139.022C1394.07 129.729 1399.02 122.272 1399.81 122.272C1400.59 122.272 1403.42 123.88 1406.1 125.846ZM424.509 161.328C416.841 166.691 415.627 168.27 419.167 168.276C424.256 168.284 427.977 172.325 445.428 196.798C455.092 210.351 463 221.867 463 222.389C463 224.901 459.735 230.604 455.939 234.723C447.683 243.679 433.427 249.986 427.351 247.371C425.369 246.518 419.625 239.292 408.5 223.658C390.382 198.196 388.765 195.352 389.378 190.022C389.616 187.96 389.591 186.272 389.325 186.272C387.984 186.272 362.224 204.826 362.637 205.494C362.902 205.922 364.201 206.272 365.524 206.272C369.672 206.272 374.386 211.662 392.66 237.301C405.417 255.198 411.217 262.534 413.294 263.394C425.058 268.266 459.452 247.976 468.103 231.062C471.992 223.456 471.604 222.576 452.651 196.052C443.109 182.698 434.685 170.647 433.932 169.272C433.178 167.897 432.323 164.447 432.031 161.605L431.5 156.438L424.509 161.328ZM1469.56 161.992C1469.18 163.521 1467.48 167.826 1465.78 171.558C1462.26 179.241 1462.78 181.312 1467.58 178.807C1473.16 175.898 1489 178.034 1489 181.696C1489 183.276 1453.87 231.652 1449.18 236.544C1447.08 238.728 1443.91 240.758 1441.65 241.367C1439.44 241.962 1438.13 242.792 1438.62 243.283C1439.11 243.758 1445.12 248.172 1452 253.091L1464.5 262.034L1465.03 256.903C1465.32 254.081 1466.19 250.648 1466.95 249.275C1467.71 247.902 1476.2 235.977 1485.82 222.775C1495.44 209.573 1503.52 197.98 1503.78 197.013C1504.06 195.912 1502.7 193.581 1500.12 190.785C1497.85 188.328 1496 186.066 1496 185.76C1496 184.499 1508.5 194.086 1511.98 198.012C1516.52 203.143 1518.61 209.539 1517.06 213.603C1515.69 217.212 1515.7 217.272 1517.64 217.272C1518.54 217.272 1521.13 215.58 1523.39 213.513C1525.65 211.446 1528.99 208.597 1530.82 207.182L1534.14 204.61L1505.32 184.248C1489.47 173.049 1475.09 162.834 1473.37 161.549L1470.23 159.212L1469.56 161.992ZM298.149 260.936L269.798 287.568L272.922 288.881C274.64 289.604 278.545 291.985 281.6 294.172C284.655 296.36 287.795 297.904 288.577 297.604C290.234 296.968 290.43 295.656 289 294.772C288.45 294.432 288 291.982 288 289.327C288 284.011 292.475 273.98 295.05 273.522C296.745 273.221 341.686 319.917 344.208 324.6C345.148 326.345 345.935 329.234 345.958 331.022C345.981 332.81 346.337 334.261 346.75 334.248C347.163 334.234 352.9 329.08 359.5 322.793C371.282 311.571 371.44 311.363 368.2 311.318C366.386 311.293 363.633 310.617 362.084 309.815C360.535 309.014 348.885 297.652 336.196 284.565L313.124 260.772L309.812 262.661C299.482 268.554 299.389 268.531 306.475 261.829C310.312 258.201 315.292 254.341 317.541 253.252C322.514 250.845 330.647 250.636 333.785 252.834C337.933 255.739 337.396 251.922 332.565 244.158C330.054 240.124 328 236.25 328 235.548C328 234.846 327.663 234.279 327.25 234.288C326.837 234.297 313.742 246.289 298.149 260.936ZM1569 237.939C1568.99 240.047 1568.16 243.122 1567.14 244.772C1566.13 246.422 1555.53 257.952 1543.59 270.395C1522.19 292.702 1518.44 295.786 1511.88 296.491C1509.56 296.739 1512.45 299.763 1536.49 322.228C1551.48 336.229 1564.23 347.848 1564.83 348.049C1565.7 348.338 1576.27 340.743 1581.49 336.075C1583.28 334.478 1579.73 333.304 1573 333.264C1565.81 333.22 1557.78 330.457 1550.72 325.599C1544.5 321.317 1535 312.246 1535 310.587C1535 308.869 1556.79 286.272 1558.44 286.272C1560.1 286.272 1570.54 297.268 1572.39 300.972C1573.28 302.733 1574 305.92 1574 308.056C1574 310.191 1574.31 312.253 1574.7 312.636C1575.37 313.305 1592 297.488 1592 296.183C1592 295.835 1589.27 295.302 1585.93 295C1581.72 294.618 1578.65 293.643 1575.89 291.815C1569.81 287.794 1564 282.226 1564 280.423C1564 278.644 1583.81 258.272 1585.54 258.272C1587.72 258.272 1599.25 270.967 1602.8 277.272C1605.91 282.807 1606.53 284.959 1606.98 291.772C1607.27 296.172 1607.95 299.772 1608.5 299.772C1609.05 299.772 1612.75 296.374 1616.72 292.222L1623.95 284.672L1597.33 259.722C1582.69 245.999 1570.32 234.622 1569.85 234.439C1569.38 234.255 1569 235.83 1569 237.939ZM217.947 345.19C212.211 351.807 207.357 357.702 207.161 358.29C206.936 358.964 207.731 359.127 209.313 358.73C210.874 358.338 213.462 358.844 216.161 360.07C220.613 362.092 264.683 399.016 268.781 404.158C270.035 405.731 271.385 408.916 271.781 411.234L272.5 415.449L296.785 387.668L321.069 359.886L313.33 352.101C308.442 347.184 305.331 344.737 304.885 345.458C304.497 346.086 304.217 350.068 304.262 354.306C304.336 361.14 303.949 362.848 300.835 369.403C298.905 373.469 295.157 379.49 292.507 382.784C289.857 386.077 287.576 388.918 287.438 389.096C286.532 390.261 277.689 383.572 258.5 367.206C232.052 344.65 231.031 343.612 229.546 337.761L228.377 333.159L217.947 345.19ZM175.159 398.212L169.922 406.461L173.834 405.8C176.448 405.358 178.983 405.656 181.472 406.696C186.043 408.606 229.593 435.686 232.846 438.641C234.848 440.46 235.132 441.505 234.784 445.772C233.728 458.719 220.272 476.272 211.403 476.272C209.29 476.272 201.534 471.987 184.957 461.66C172.056 453.623 160.21 445.861 158.632 444.41C157.055 442.959 154.989 439.978 154.041 437.784L152.318 433.797L146.504 442.784C143.305 447.728 139.175 454.127 137.324 457.006L133.959 462.239L138.259 461.65C141.039 461.269 143.82 461.588 146.127 462.552C148.09 463.372 160.452 470.78 173.598 479.013C186.744 487.247 198.483 494.499 199.684 495.128C206.303 498.595 215.997 493.349 225.83 480.979C236.185 467.954 242.086 454.937 242.345 444.551C242.48 439.116 242.184 438.025 240 435.914C238.625 434.585 226.475 426.636 213 418.249C199.525 409.862 187.276 401.865 185.781 400.478C184.285 399.092 182.462 396.158 181.729 393.96L180.397 389.962L175.159 398.212ZM112.207 504.073C105.222 513.494 97.605 526.307 95.584 532.033C86.645 557.37 103.902 584.917 131.587 589.505C144.689 591.676 158.24 587.475 168.561 578.043C173.027 573.961 175.198 570.765 179.554 561.864C184.933 550.873 189.437 536.369 188.82 532.026C188.588 530.39 186.581 528.753 181.5 526.054C177.65 524.009 174.217 522.321 173.871 522.304C173.526 522.286 172.666 523.665 171.96 525.368C170.802 528.163 170.949 529.014 173.464 534.118C183.113 553.702 171.891 570.272 148.977 570.272C137.216 570.272 124.988 565.06 116.096 556.257C106.268 546.527 102.652 534.709 106.456 524.748C109.446 516.919 120.069 510.272 129.592 510.272C132.086 510.272 133.382 509.618 134.612 507.741C135.525 506.349 136.097 505.051 135.885 504.857C135.229 504.257 119.076 496.272 118.518 496.272C118.229 496.272 115.389 499.783 112.207 504.073ZM73.754 638.356C62.698 640.962 49.352 651.422 43.779 661.847C36.157 676.105 36.147 694.584 43.754 708.561C47.437 715.328 57.859 724.665 64.862 727.471C69.51 729.334 72.44 729.734 81.553 729.751C92.309 729.771 92.809 729.672 100.114 726.061C137.477 707.592 135.502 651.178 97.073 639.218C90.475 637.164 80.391 636.791 73.754 638.356ZM85.996 657.771C95.557 659.782 103.232 663.687 110.098 670.032C122.349 681.355 123.422 694.619 112.822 703.693C104.394 710.906 90.958 712.97 76.496 709.271C64.046 706.087 53.773 698.852 48.183 689.33C44.232 682.6 44.36 674.052 48.5 668.212C55.491 658.349 69.801 654.365 85.996 657.771ZM34 762.143C25.635 764.911 18.593 770.777 15.397 777.638C13.999 780.641 4.894 830.362 5.597 831.157C5.784 831.369 7.045 830.817 8.398 829.931C9.752 829.044 12.578 828.065 14.68 827.755C19.415 827.057 80.474 837.431 84.803 839.67C86.447 840.52 88.707 842.466 89.825 843.994C91.37 846.106 91.977 846.412 92.354 845.272C93.394 842.13 97.953 813.891 97.494 813.433C97.229 813.168 96.144 813.736 95.084 814.696C94.023 815.656 91.315 816.688 89.067 816.99C84.913 817.547 62.982 814.513 63.022 813.387C63.053 812.512 87.834 798.561 91.8 797.186C93.614 796.557 96.389 796.3 97.965 796.615L100.83 797.188L102.531 787.48C103.467 782.141 104.786 774.734 105.462 771.022C106.138 767.31 106.561 764.272 106.402 764.272C106.243 764.272 103.77 766.749 100.907 769.777C98.043 772.805 92.843 777.087 89.35 779.292C84.373 782.436 83 783.832 83 785.75C83 789.718 79.263 798.545 75.995 802.293L72.963 805.772L75.232 801.272C78.632 794.526 78.437 784.366 74.788 778.159C68.708 767.816 58.61 762.201 45.12 761.661C40.379 761.471 35.375 761.688 34 762.143ZM55.332 783.515C63.569 787.358 67 791.298 67 796.91C67 802.277 64.866 807.738 62.214 809.157C56.587 812.169 51.996 812.18 35.098 809.223C33.159 808.884 31.394 808.578 29.7879 808.299C17.7417 806.212 14.6297 805.673 14.063 804.172C13.8657 803.65 13.9771 803.01 14.1274 802.148C14.185 801.818 14.2482 801.455 14.302 801.054C14.606 798.79 16.125 794.425 17.677 791.355C20.059 786.645 21.36 785.332 26 782.958C31.036 780.381 32.259 780.171 40.5 780.469C47.752 780.731 50.633 781.323 55.332 783.515ZM1.627 901.546C0.135 957.396 0.135 957.437 1.888 956.727C2.775 956.367 7.323 955.306 11.997 954.369C21.432 952.477 23.078 950.737 17.764 948.272C13.233 946.17 8.898 939.547 8.241 933.722L7.703 928.945L42.519 929.636C73.336 930.247 77.818 930.54 81.538 932.186C83.85 933.209 86.056 934.554 86.44 935.175C88.302 938.188 89 933.791 89 919.039V902.923L86.75 905.031C82.179 909.313 80.177 909.51 45.019 909.132L11.538 908.772L9.815 915.143C8.867 918.647 7.784 921.797 7.408 922.143C6.292 923.171 7.747 904.849 9.154 900.152C10.647 895.17 16.987 888.272 20.073 888.272C21.464 888.272 22.04 887.729 21.823 886.622C21.596 885.463 19.182 884.425 13.707 883.134C9.421 882.124 5.084 880.852 4.068 880.308C2.306 879.365 2.194 880.338 1.627 901.546ZM50 993.819C12.336 998.897 8.096 999.112 3.368 996.19L0 994.109L0.02 996.44C0.048 999.691 1.784 1011.39 2.317 1011.92C2.559 1012.16 4.09 1011.03 5.72 1009.4C9.43 1005.69 12.473 1004.89 33.217 1002.2C50.249 999.992 53.665 1000.1 52.628 1002.8C52.309 1003.63 45.058 1014.37 36.514 1026.67C21.751 1047.93 13.83 1057.27 10.581 1057.27C9.777 1057.27 8.903 1057.62 8.64 1058.04C8.377 1058.47 9.14 1066.01 10.334 1074.79C12.927 1093.86 13.468 1094.33 20.718 1083.77L25.524 1076.77L53.012 1073.09C85.565 1068.74 89.236 1068.58 94.261 1071.27C96.314 1072.37 98.132 1073.27 98.303 1073.27C98.544 1073.27 97.612 1065.8 96.066 1055.33C96.03 1055.08 94.538 1056.27 92.75 1057.96C88.302 1062.17 85.934 1062.75 58.638 1066.32C33.22 1069.65 31.126 1069.54 33.917 1065C34.67 1063.77 44.108 1050.62 54.892 1035.77C75.332 1007.63 82.455 999.272 86.007 999.272C87.891 999.272 88.078 998.779 87.805 994.522C87.531 990.257 87.245 989.755 85 989.605C83.625 989.513 67.875 991.41 50 993.819ZM102.5 1106.85C101.95 1107 97.09 1107.43 91.699 1107.8C85.052 1108.25 82.02 1108.83 82.278 1109.61C82.487 1110.23 84.926 1112.33 87.698 1114.26C95.976 1120.03 101.437 1127.97 104.914 1139.3C108.215 1150.05 108.91 1154.1 107.637 1155.16C105.447 1156.97 75.779 1163.33 74.493 1162.27C72.698 1160.78 70.642 1147.15 71.424 1141.93C71.797 1139.44 72.979 1136.3 74.051 1134.93C76.328 1132.04 76.606 1129.82 74.596 1130.6C73.823 1130.89 68.423 1132.17 62.596 1133.44C56.768 1134.7 52 1136.05 52 1136.42C52 1136.8 53.604 1138.1 55.564 1139.31C57.524 1140.52 60.217 1143.24 61.548 1145.35C64.384 1149.84 68.11 1162.48 67.087 1164.13C66.251 1165.48 40.714 1171.52 37.699 1171.08C34.722 1170.64 32.824 1163.02 32.646 1150.77C32.495 1140.4 33.578 1136.78 39.736 1127.08C40.677 1125.6 41.196 1124.14 40.89 1123.83C40.583 1123.52 35.645 1124.33 29.916 1125.62C20.882 1127.66 19.542 1128.22 19.817 1129.87C20.059 1131.32 32.169 1183.91 35.552 1198.2L36.127 1200.63L37.979 1197.8C38.997 1196.25 41.17 1194.13 42.807 1193.1C46.214 1190.94 104.892 1177.27 110.705 1177.28C112.792 1177.28 115.804 1177.96 117.399 1178.8C118.993 1179.63 120.497 1180.11 120.741 1179.86C121.226 1179.38 105.129 1109.46 104.12 1107.67C103.779 1107.06 103.05 1106.69 102.5 1106.85ZM115 1213.01C111.425 1214.42 108.354 1215.68 108.176 1215.83C107.998 1215.97 108.548 1217.43 109.397 1219.07C110.649 1221.49 112.224 1222.45 117.721 1224.12C126.35 1226.75 131.952 1230.88 134.914 1236.81C136.88 1240.75 137.176 1242.56 136.773 1248.2C136.381 1253.68 135.653 1255.91 132.809 1260.34C126.644 1269.95 118.182 1276.07 106.068 1279.66C99.267 1281.68 87.92 1281.73 81.345 1279.78C63.718 1274.55 58.25 1256.61 69.702 1241.6C72.313 1238.17 72.33 1233.28 69.731 1233.27C68.672 1233.26 53.151 1239.1 52.138 1239.88C51.455 1240.41 55.198 1255.77 58.573 1266.28C60.428 1272.06 63.256 1278.86 64.856 1281.39C80.309 1305.75 113.974 1309.34 134.572 1288.82C141.837 1281.58 145.571 1274.2 147.171 1263.91C148.157 1257.57 148.08 1255.43 146.653 1249.61C143.018 1234.8 128.219 1210.08 123.157 1210.37C122.246 1210.42 118.575 1211.61 115 1213.01Z" fill="#017849"/>
<path fill-rule="evenodd" clip-rule="evenodd" d="M1836.67 1057.08C1812.76 1062.56 1793.08 1067.16 1792.94 1067.3C1792.81 1067.43 1792.02 1071.1 1791.19 1075.44C1789.98 1081.74 1789.93 1083.59 1790.92 1084.51C1792.98 1086.44 1865.24 1132.78 1866.68 1133.11C1867.62 1133.32 1868.4 1131.31 1869.28 1126.41C1869.36 1125.99 1869.43 1125.59 1869.5 1125.21C1870.39 1120.27 1870.82 1117.88 1869.98 1116.08C1869.19 1114.41 1867.28 1113.25 1863.58 1111.02C1863.27 1110.84 1862.95 1110.65 1862.62 1110.45C1858.2 1107.77 1854.41 1105.31 1854.2 1104.97C1853.81 1104.35 1859.62 1070.71 1860.23 1070.04C1860.42 1069.84 1864.68 1068.83 1869.7 1067.8C1874.72 1066.77 1879.19 1065.7 1879.64 1065.42C1880.09 1065.15 1880.98 1061.88 1881.62 1058.16C1882.26 1054.45 1883.03 1050.4 1883.33 1049.16C1883.75 1047.42 1883.46 1046.93 1882.02 1047.01C1881 1047.06 1860.59 1051.59 1836.67 1057.08ZM1842.17 1076.16C1841.88 1077.4 1840.98 1081.96 1840.17 1086.31C1839.36 1090.65 1838.52 1094.39 1838.29 1094.61C1837.76 1095.14 1814.66 1080.8 1814.66 1079.94C1814.66 1079.32 1837.27 1074.21 1840.93 1074.01C1842.27 1073.93 1842.57 1074.46 1842.17 1076.16ZM1777.56 1185.94C1772.86 1186.73 1765.56 1191.05 1762.22 1195.02C1758.53 1199.41 1756.9 1202.84 1748.36 1224.15L1740.88 1242.81L1755.02 1248.32C1762.8 1251.35 1780.63 1258.3 1794.66 1263.75L1820.15 1273.66L1823.41 1265.59C1825.2 1261.15 1826.66 1257.23 1826.66 1256.86C1826.66 1256.5 1821.06 1254.07 1814.22 1251.45L1801.77 1246.7L1803.84 1241.55C1804.98 1238.72 1806.13 1235.62 1806.4 1234.66C1806.67 1233.7 1807.05 1232.91 1807.24 1232.91C1807.92 1232.91 1836.18 1226.85 1837.75 1226.36C1839.18 1225.93 1847.42 1207.26 1846.52 1206.48C1846.32 1206.31 1838.74 1207.89 1829.66 1209.99C1820.59 1212.1 1812.84 1213.84 1812.46 1213.86C1812.07 1213.89 1811.47 1212.22 1811.12 1210.16C1809.95 1203.16 1808.43 1199.66 1804.85 1195.7C1798.55 1188.72 1786.54 1184.43 1777.56 1185.94ZM1789.44 1206.91C1793.43 1209.35 1795.01 1213.1 1794.29 1218.41C1793.64 1223.13 1787.31 1239.19 1785.91 1239.66C1785.03 1239.95 1763.66 1232.11 1763.66 1231.5C1763.66 1231.36 1765.47 1226.79 1767.69 1221.35C1772.69 1209.05 1776.32 1204.91 1782.11 1204.91C1784.39 1204.92 1787.59 1205.79 1789.44 1206.91ZM1703.82 1319.54C1700.24 1325.83 1699.71 1327.37 1700.82 1328.4C1702.7 1330.14 1771.26 1368.91 1772.46 1368.91C1773.45 1368.91 1781.66 1355.78 1781.66 1354.18C1781.66 1353.47 1709.67 1311.88 1708.5 1311.92C1708.31 1311.93 1706.21 1315.36 1703.82 1319.54ZM1639.74 1418.99C1629.8 1432.78 1621.66 1444.43 1621.66 1444.86C1621.66 1445.52 1638.43 1457.51 1684.3 1489.61L1690.44 1493.91L1708.8 1468.41C1718.9 1454.39 1727.16 1442.49 1727.16 1441.97C1727.16 1440.95 1716.12 1432.91 1714.72 1432.91C1714.08 1432.91 1693.08 1461.21 1688.47 1468.28C1687.78 1469.33 1673.66 1460.47 1673.66 1458.98C1673.66 1458.59 1678.61 1451.38 1684.66 1442.95C1690.71 1434.53 1695.66 1427.34 1695.66 1426.97C1695.66 1426.16 1684.09 1417.91 1682.95 1417.91C1682.5 1417.91 1677.19 1424.87 1671.15 1433.37C1665.11 1441.88 1659.77 1448.85 1659.29 1448.87C1658.81 1448.89 1655.54 1446.86 1652.03 1444.35C1646.81 1440.63 1645.82 1439.49 1646.59 1438.1C1647.11 1437.17 1652.92 1428.98 1659.5 1419.91C1666.08 1410.83 1671.26 1403.07 1671 1402.65C1670.47 1401.79 1659.02 1393.91 1658.3 1393.91C1658.04 1393.91 1649.69 1405.2 1639.74 1418.99ZM1560.42 1515.8C1544.08 1521.18 1531.52 1535.79 1528.5 1552.94C1526.29 1565.5 1530.93 1579.3 1540.65 1589.04C1547.35 1595.76 1554.4 1599.55 1563.92 1601.53C1585.5 1606.03 1608.88 1591.63 1615.9 1569.51C1618.8 1560.4 1617.97 1548.29 1613.84 1539.48C1609.55 1530.31 1602.07 1522.72 1592.85 1518.16C1586.04 1514.79 1584.55 1514.44 1575.77 1514.19C1568.45 1513.97 1564.79 1514.36 1560.42 1515.8ZM1583.65 1534.9C1593.12 1539.74 1599.01 1549.13 1599.01 1559.41C1599 1566.88 1596.46 1572.16 1590.21 1577.65C1579.85 1586.78 1564.59 1585.75 1554.47 1575.24C1547.62 1568.14 1544.76 1557.11 1547.72 1549.22C1550.5 1541.8 1557.38 1535.26 1564.81 1533C1569.52 1531.56 1578.96 1532.51 1583.65 1534.9ZM1446.4 1610.94C1440.42 1612.44 1435.19 1615.46 1418.99 1626.79C1409.97 1633.09 1404.13 1637.8 1404.59 1638.4C1405.01 1638.96 1415.84 1654.03 1428.65 1671.91C1441.47 1689.78 1452.25 1704.75 1452.61 1705.17C1452.98 1705.59 1456.72 1703.53 1460.92 1700.61L1468.56 1695.29L1461.12 1684.98L1453.68 1674.68L1460.87 1669.63C1476 1659 1481.16 1651.19 1481.16 1638.91C1481.16 1630.96 1479.32 1626.41 1473.12 1619.05C1467.74 1612.65 1455.01 1608.79 1446.4 1610.94ZM1455.04 1629.3C1462.6 1632.45 1465.25 1642.68 1460.1 1648.8C1456.65 1652.9 1444.59 1661.24 1443.57 1660.22C1443.12 1659.77 1439.64 1655.14 1435.83 1649.92L1428.9 1640.44L1434.92 1636.07C1440.93 1631.69 1448.03 1627.97 1450.44 1627.93C1451.15 1627.92 1453.22 1628.53 1455.04 1629.3ZM1306.66 1687.47L1299.16 1690.76L1298.84 1695.09C1298.45 1700.35 1300.46 1782.04 1301 1782.58C1301.21 1782.79 1305.03 1781.32 1309.49 1779.31L1317.6 1775.65L1317.88 1765.17L1318.16 1754.69L1333.61 1747.8C1342.11 1744.01 1349.42 1740.91 1349.84 1740.91C1350.27 1740.91 1353.72 1743.83 1357.51 1747.41C1361.3 1750.98 1365.02 1753.88 1365.78 1753.85C1366.54 1753.82 1370.68 1752.13 1374.98 1750.1L1382.79 1746.41L1353.05 1719.41C1336.69 1704.56 1321.25 1690.56 1318.73 1688.29L1314.16 1684.17L1306.66 1687.47ZM1331.94 1723.64L1336.72 1728.54L1327.05 1732.75C1321.73 1735.07 1317.16 1736.75 1316.9 1736.48C1316.63 1736.21 1316.17 1729.8 1315.89 1722.22L1315.36 1708.45L1321.26 1713.6C1324.51 1716.43 1329.31 1720.95 1331.94 1723.64ZM1176.07 1734.38C1151.74 1739.98 1136.82 1760.5 1140.58 1783.22C1144.87 1809.23 1168.72 1825.46 1193.92 1819.52C1206.41 1816.59 1215.51 1810.5 1221.59 1801.02C1223.28 1798.39 1224.66 1795.98 1224.66 1795.66C1224.66 1795.34 1221.56 1793.3 1217.78 1791.11L1210.9 1787.15L1205.84 1792.89C1199.46 1800.14 1193.58 1803.05 1185.19 1803.1C1174.61 1803.16 1165.59 1796.69 1161.69 1786.24C1153.27 1763.76 1172.34 1744.8 1195.27 1752.86L1200.83 1754.82L1204.25 1747.43C1206.13 1743.37 1207.66 1739.59 1207.66 1739.05C1207.66 1737.24 1196.28 1733.74 1189.16 1733.36C1185.28 1733.15 1179.45 1733.61 1176.07 1734.38Z" fill="black"/>
<defs>
<linearGradient id="paint0_linear_15_34" x1="950.702" y1="154.622" x2="950.702" y2="1887.15" gradientUnits="userSpaceOnUse">
<stop offset="0.134615" stop-color="#00321E"/>
<stop offset="1" stop-color="#7CB49E"/>
</linearGradient>
<radialGradient id="paint1_radial_15_34" cx="0" cy="0" r="1" gradientUnits="userSpaceOnUse" gradientTransform="translate(954.423 943.573) rotate(90) scale(943.573 944.423)">
<stop offset="0.134615" stop-color="#00321E"/>
<stop offset="1" stop-color="#7CB49E"/>
</radialGradient>
<radialGradient id="paint2_radial_15_34" cx="0" cy="0" r="1" gradientUnits="userSpaceOnUse" gradientTransform="translate(950.702 1020.88) rotate(90) scale(866.262 784.794)">
<stop offset="0.134615" stop-color="#00321E"/>
<stop offset="1" stop-color="#7CB49E"/>
</radialGradient>
</defs>
</svg>
